<svg width="29" height="30" viewBox="0 0 29 30" fill="none" xmlns="http://www.w3.org/2000/svg">
<path d="M21.7222 27.4444C20.6377 27.4444 19.1144 27.0522 16.8333 25.7777C14.0594 24.2222 11.9139 22.7861 9.15497 20.0344C6.49497 17.3761 5.20053 15.655 3.38886 12.3583C1.34219 8.63607 1.69108 6.68496 2.08108 5.85107C2.54553 4.8544 3.23108 4.25829 4.11719 3.66663C4.6205 3.33687 5.15312 3.05419 5.7083 2.82218C5.76386 2.79829 5.81553 2.77551 5.86164 2.75496C6.13664 2.63107 6.5533 2.44385 7.08108 2.64385C7.4333 2.77607 7.74775 3.04663 8.23997 3.53274C9.24941 4.52829 10.6289 6.74551 11.1377 7.8344C11.4794 8.56829 11.7055 9.05274 11.7061 9.59607C11.7061 10.2322 11.3861 10.7227 10.9977 11.2522C10.925 11.3516 10.8527 11.4466 10.7827 11.5388C10.36 12.0944 10.2672 12.255 10.3283 12.5416C10.4522 13.1177 11.3761 14.8327 12.8944 16.3477C14.4127 17.8627 16.0783 18.7283 16.6566 18.8516C16.9555 18.9155 17.1194 18.8188 17.6927 18.3811C17.775 18.3183 17.8594 18.2533 17.9477 18.1883C18.54 17.7477 19.0077 17.4361 19.6289 17.4361H19.6322C20.1727 17.4361 20.6355 17.6705 21.4022 18.0572C22.4022 18.5616 24.6861 19.9233 25.6877 20.9338C26.175 21.425 26.4466 21.7383 26.5794 22.09C26.7794 22.6194 26.5911 23.0344 26.4683 23.3122C26.4477 23.3583 26.425 23.4088 26.4011 23.465C26.1672 24.0192 25.8829 24.5507 25.5516 25.0527C24.9611 25.9361 24.3627 26.62 23.3639 27.085C22.8509 27.3276 22.2896 27.4505 21.7222 27.4444Z" fill="#860279"/>
</svg>
