<svg width="25" height="26" viewBox="0 0 25 26" fill="none" xmlns="http://www.w3.org/2000/svg">
<g clip-path="url(#clip0_7_56)">
<path d="M23.138 5.23431C22.6028 3.03612 20.8479 1.24529 18.6653 0.678481C17.1005 0.272092 15.6028 0.926398 14.3321 1.86119C14.1741 1.97737 13.9937 2.04251 13.8217 2.12758L15.1983 3.01279C15.559 3.24466 15.664 3.72591 15.4317 4.08758C15.2149 4.42543 14.738 4.56688 14.3569 4.32091L9.47096 1.17966C8.46471 0.652231 7.36221 0.382439 6.22325 0.678481C4.04061 1.24577 2.28575 3.03612 1.75054 5.23431C1.25811 7.25751 1.73013 9.16258 2.79568 10.6024C3.93124 12.1371 4.38429 13.9401 4.55978 15.8208C4.77367 18.1133 5.06193 20.3981 5.5777 22.642L5.95686 24.2923C6.11193 24.9665 6.70985 25.4444 7.39916 25.4444C8.07825 25.4444 8.67034 24.9801 8.83513 24.3186L10.5108 17.5898C10.7324 16.6992 11.5296 16.0751 12.4435 16.0751C13.3574 16.0751 14.1546 16.6997 14.3763 17.5898L16.0519 24.3186C16.2167 24.9801 16.8088 25.4444 17.4879 25.4444C18.1772 25.4444 18.7751 24.9665 18.9302 24.2923L19.3094 22.642C19.8251 20.3986 20.1129 18.1133 20.3273 15.8208C20.5028 13.9396 20.9558 12.1371 22.0914 10.6024C23.1584 9.16306 23.6304 7.258 23.138 5.23431V5.23431Z" fill="#D8D8D8"/>
</g>
<defs>
<clipPath id="clip0_7_56">
<rect width="24.8889" height="24.8889" fill="white" transform="translate(0 0.555542)"/>
</clipPath>
</defs>
</svg>
