<svg width="32" height="32" viewBox="0 0 32 32" fill="none" xmlns="http://www.w3.org/2000/svg">
<path d="M15.9999 3.40747C22.9546 3.40747 28.5925 9.04537 28.5925 16.0001C28.5925 22.9548 22.9546 28.5927 15.9999 28.5927C9.04524 28.5927 3.40735 22.9548 3.40735 16.0001C3.40735 9.04537 9.04524 3.40747 15.9999 3.40747ZM18.9459 9.22377L11.1385 21.5645C10.8038 22.0935 10.9614 22.7935 11.4903 23.1282C12.0193 23.4628 12.7193 23.3053 13.054 22.7764L20.8614 10.4356C21.196 9.90667 21.0385 9.20658 20.5096 8.87194C19.9806 8.53729 19.2805 8.69481 18.9459 9.22377ZM20.4074 16.3149C18.8425 16.3149 17.574 17.5834 17.574 19.1482V20.4075C17.574 21.9723 18.8425 23.2408 20.4074 23.2408C21.9722 23.2408 23.2407 21.9723 23.2407 20.4075V19.1482C23.2407 17.5834 21.9722 16.3149 20.4074 16.3149ZM20.4074 18.2038C20.929 18.2038 21.3518 18.6266 21.3518 19.1482V20.4075C21.3518 20.9291 20.929 21.3519 20.4074 21.3519C19.8857 21.3519 19.4629 20.9291 19.4629 20.4075V19.1482C19.4629 18.6266 19.8857 18.2038 20.4074 18.2038ZM11.5925 8.75932C10.0277 8.75932 8.7592 10.0278 8.7592 11.5927V12.8519C8.7592 14.4167 10.0277 15.6852 11.5925 15.6852C13.1573 15.6852 14.4259 14.4167 14.4259 12.8519V11.5927C14.4259 10.0278 13.1573 8.75932 11.5925 8.75932ZM11.5925 10.6482C12.1141 10.6482 12.537 11.0711 12.537 11.5927V12.8519C12.537 13.3735 12.1141 13.7964 11.5925 13.7964C11.0709 13.7964 10.6481 13.3735 10.6481 12.8519V11.5927C10.6481 11.0711 11.0709 10.6482 11.5925 10.6482Z" fill="#D8D8D8"/>
</svg>
