<svg width="32" height="32" viewBox="0 0 32 32" fill="none" xmlns="http://www.w3.org/2000/svg">
<path d="M28 26.6667C28 27.0203 27.8595 27.3595 27.6095 27.6095C27.3594 27.8596 27.0203 28.0001 26.6667 28.0001H5.33333C4.97971 28.0001 4.64057 27.8596 4.39052 27.6095C4.14048 27.3595 4 27.0203 4 26.6667V12.6534C3.99986 12.4502 4.04616 12.2497 4.13535 12.0671C4.22455 11.8846 4.35429 11.7248 4.51467 11.6001L15.1813 3.30406C15.4154 3.12198 15.7035 3.02313 16 3.02313C16.2965 3.02313 16.5846 3.12198 16.8187 3.30406L27.4853 11.6001C27.6457 11.7248 27.7754 11.8846 27.8646 12.0671C27.9538 12.2497 28.0001 12.4502 28 12.6534V26.6667ZM10.6667 20.0001C9.93029 20.0001 9.33333 20.597 9.33333 21.3334V21.3334C9.33333 22.0698 9.93029 22.6667 10.6667 22.6667H21.3333C22.0697 22.6667 22.6667 22.0698 22.6667 21.3334V21.3334C22.6667 20.597 22.0697 20.0001 21.3333 20.0001H10.6667Z" fill="url(#paint0_linear_7_52)"/>
<defs>
<linearGradient id="paint0_linear_7_52" x1="78.0198" y1="15.5116" x2="-24.6931" y2="15.5116" gradientUnits="userSpaceOnUse">
<stop stop-color="#5E0370"/>
<stop offset="1" stop-color="#A1007E"/>
</linearGradient>
</defs>
</svg>
