<svg width="45" height="45" viewBox="0 0 45 45" fill="none" xmlns="http://www.w3.org/2000/svg">
<g clip-path="url(#clip0_1_495)">
<path d="M3.28115 18.8611H3.97868C5.02497 16.1444 6.80552 13.6755 9.17345 11.6747C9.17345 11.6747 9.17345 11.6747 9.17345 11.6655C9.52222 10.4357 9.26524 9.11401 8.4025 7.73731C7.92524 6.97553 7.92524 6.03019 8.41168 5.27759C8.89812 4.52499 9.75167 4.12115 10.6419 4.23129C13.9552 4.6443 15.9285 6.1495 17.0849 7.54457C18.1771 7.24169 19.306 7.02142 20.4441 6.88375C21.0499 6.81032 21.6005 7.24169 21.6648 7.84744C21.7382 8.45319 21.3068 9.00388 20.7011 9.06812C19.4345 9.21497 18.1863 9.49031 16.984 9.86661C16.5159 10.0135 16.0111 9.83908 15.7358 9.43525C14.9465 8.26963 13.377 6.79197 10.3574 6.41567C10.3299 6.41567 10.2932 6.40649 10.2565 6.46156C10.2198 6.51662 10.2473 6.55334 10.2565 6.57169C11.4496 8.47155 11.7984 10.4357 11.2752 12.2713C11.2752 12.2804 11.2752 12.2896 11.2752 12.2988C11.2661 12.62 11.1192 12.9229 10.8622 13.1248C8.43921 15.0797 6.6862 17.567 5.78675 20.3021C5.6399 20.7518 5.21772 21.0638 4.74046 21.0638C4.73128 21.0638 4.73128 21.0638 4.7221 21.0638H3.26279C2.758 21.0638 2.35416 21.4677 2.35416 21.9725V26.9286C2.35416 27.4334 2.758 27.8372 3.26279 27.8372H4.65786C5.14429 27.8372 5.56648 28.1493 5.71333 28.6174C6.50264 31.2056 8.07209 33.5827 10.2381 35.5101C10.2473 35.5193 10.2473 35.5193 10.2565 35.5285L10.2656 35.5376C10.3482 35.6111 10.4309 35.6753 10.5135 35.7487C10.5226 35.7579 10.5318 35.7671 10.541 35.7671C12.8906 37.8964 13.1292 40.402 13.1476 41.1179C13.1476 41.1271 13.1476 41.1362 13.1476 41.1454V42.7699H19.7649V41.2188C19.7649 40.9068 19.8934 40.6131 20.1321 40.402C20.3707 40.1909 20.6736 40.09 20.9856 40.1267C21.7199 40.2001 22.4541 40.246 23.1883 40.246C24.1245 40.246 25.0698 40.1817 25.9877 40.0624C26.2997 40.0165 26.6209 40.1175 26.8596 40.3286C27.0982 40.5397 27.2359 40.8425 27.2359 41.1546V42.7791H33.8532V42.2927C33.8532 42.2743 33.8532 42.256 33.8532 42.2468C33.9083 41.0536 34.2846 38.0065 36.6617 35.5652C37.7906 34.3996 38.8002 32.8668 39.663 31.0037C39.6721 30.9853 39.6721 30.9761 39.6813 30.967C40.1953 29.9757 40.5808 28.9294 40.8469 27.8556C40.8469 27.8464 40.8561 27.8372 40.8561 27.8281C40.8561 27.8189 40.8561 27.8189 40.8561 27.8097C41.1131 26.7542 41.2416 25.6712 41.2416 24.5882C41.2416 23.8264 41.1773 23.0647 41.0488 22.3212C40.9479 21.7247 41.3517 21.1556 41.9575 21.0547C42.554 20.9537 43.1231 21.3575 43.224 21.9633C43.3709 22.826 43.4443 23.7163 43.4443 24.5974C43.4443 25.8364 43.2975 27.0846 43.0129 28.2961C43.0129 28.3145 43.0038 28.342 42.9946 28.3604C42.9946 28.3604 42.9854 28.3788 42.9854 28.4155C42.6825 29.6361 42.2328 30.8385 41.6546 31.9674C40.6909 34.0508 39.5436 35.7763 38.2404 37.1163C36.4139 38.9978 36.1019 41.3749 36.056 42.3386V42.8067C36.056 42.8342 36.056 42.8617 36.056 42.8984C36.056 42.9443 36.056 42.9902 36.0468 43.0269C35.9367 44.1375 34.9913 44.991 33.8716 44.991H27.2267C26.0152 44.991 25.0331 44.009 25.0331 42.7975V42.3845C24.0144 42.4671 22.9956 42.4762 21.9768 42.4304V42.8067C21.9768 44.0182 20.9948 45.0002 19.7833 45.0002H13.1384C11.9269 45.0002 10.9448 44.0182 10.9448 42.8067V41.1821C10.9356 40.8058 10.7888 38.9886 9.0725 37.4283C8.98989 37.3549 8.9073 37.2815 8.82469 37.208C8.81551 37.1989 8.81551 37.1989 8.80634 37.1897C8.78798 37.1713 8.76044 37.153 8.74209 37.1346C6.51182 35.143 4.84142 32.7016 3.87772 30.0492H3.28115C1.56485 30.0492 0.169785 28.6541 0.169785 26.9378V21.9816C0.169785 20.2562 1.56485 18.8611 3.28115 18.8611Z" fill="white"/>
<path d="M34.046 21.5684C28.0986 21.5684 23.2618 16.7316 23.2618 10.7842C23.2618 4.83683 28.0986 0 34.046 0C39.9934 0 44.8302 4.83683 44.8302 10.7842C44.8302 16.7316 39.9934 21.5684 34.046 21.5684ZM34.046 2.20273C29.3101 2.20273 25.4645 6.04834 25.4645 10.7842C25.4645 15.5201 29.3101 19.3657 34.046 19.3657C38.7818 19.3657 42.6275 15.5201 42.6275 10.7842C42.6275 6.04834 38.7818 2.20273 34.046 2.20273Z" fill="white"/>
</g>
<defs>
<clipPath id="clip0_1_495">
<rect width="45" height="45" fill="white" transform="matrix(-1 0 0 1 45 0)"/>
</clipPath>
</defs>
</svg>
