<svg width="44" height="44" viewBox="0 0 44 44" fill="none" xmlns="http://www.w3.org/2000/svg">
<g clip-path="url(#clip0_1_449)">
<path d="M43.9084 30.4826C43.6781 29.4495 43.0422 28.5722 42.1177 28.0123L31.502 21.5824C31.3524 21.4917 31.1969 21.4121 31.0376 21.3417V7.46035C31.0376 5.69398 30.2158 4.08848 28.783 3.05553C27.3501 2.0225 25.5672 1.75041 23.8914 2.30844L21.7339 3.02706C19.7443 1.55024 16.9127 1.71317 15.1094 3.51652L13.4072 5.2188C12.9032 5.72263 12.9032 6.53966 13.4072 7.04357L18.7747 12.4111C19.0167 12.6532 19.3449 12.7891 19.6871 12.7891C20.0293 12.7891 20.3575 12.6532 20.5995 12.4111L22.3018 10.7089H22.3017C23.2623 9.74835 23.7913 8.47119 23.7913 7.11265C23.7913 6.44142 23.6617 5.79024 23.4151 5.18706L24.7069 4.75678C25.5863 4.46396 26.5219 4.60676 27.2739 5.14878C28.0258 5.69089 28.457 6.53338 28.457 7.46026V20.9928H16.9897C16.4724 20.9928 15.9953 20.7353 15.7446 20.3206L7.46014 6.61424C6.35717 4.78955 3.91786 4.15798 2.02246 5.20607C2.02057 5.20719 2.01808 5.20848 2.01558 5.20994C1.07184 5.73338 0.402075 6.58345 0.129387 7.60426C-0.137796 8.60443 0.0117956 9.64624 0.550548 10.5378L10.399 26.8318C11.1141 28.0148 12.4374 28.7498 13.8526 28.7498H18.1237V35.6369L16.0682 39.3952H14.2529C13.5403 39.3952 12.9626 39.9729 12.9626 40.6855C12.9626 41.3982 13.5403 41.9759 14.2529 41.9759H29.7473C30.4599 41.9759 31.0376 41.3982 31.0376 40.6855C31.0376 39.9729 30.4599 39.3952 29.7473 39.3952H27.9318L25.8763 35.6369V28.7498H27.802C28.0817 28.7498 28.3531 28.8246 28.5868 28.9662L37.8742 34.5915C38.528 34.9876 39.259 35.1764 39.983 35.1764C41.3018 35.1763 42.5971 34.5496 43.3586 33.4066C43.9391 32.535 44.1344 31.4967 43.9084 30.4826ZM20.4769 8.88409L19.6871 9.67403L16.1443 6.13115L16.9341 5.34121C17.4073 4.86809 18.0363 4.60753 18.7055 4.60753C19.3746 4.60753 20.0037 4.86809 20.4769 5.3413C20.95 5.8145 21.2107 6.44349 21.2107 7.11274C21.2107 7.7819 20.9501 8.41089 20.4769 8.88409ZM19.0097 39.3952L20.1792 37.257H23.8209L24.9904 39.3952H19.0097ZM23.2957 34.6763H20.7045V28.7497H23.2957V34.6763ZM41.2108 31.9756C40.7941 32.6011 39.8783 32.7883 39.2111 32.384L29.9235 26.7587C29.2866 26.3729 28.553 26.1691 27.8019 26.1691H13.8527C13.3353 26.1691 12.8582 25.9114 12.6076 25.4968L2.75915 9.20289C2.58668 8.91755 2.53816 8.58628 2.62263 8.27015C2.71296 7.93192 2.94255 7.64624 3.26909 7.46568C3.27072 7.46474 3.27278 7.46362 3.27494 7.46241C3.9601 7.08607 4.86444 7.30852 5.25162 7.94904L13.5361 21.6555C14.2512 22.8386 15.5745 23.5735 16.9897 23.5735H29.3804C29.6601 23.5735 29.9315 23.6482 30.1652 23.7898L40.7807 30.2197C41.0976 30.4116 41.3138 30.7044 41.3895 31.0441C41.461 31.3646 41.3975 31.6954 41.2108 31.9756Z" fill="white"/>
</g>
<defs>
<clipPath id="clip0_1_449">
<rect width="44" height="44" fill="white"/>
</clipPath>
</defs>
</svg>
