<svg width="42" height="42" viewBox="0 0 42 42" fill="none" xmlns="http://www.w3.org/2000/svg">
<g clip-path="url(#clip0_1_479)">
<path d="M39.0734 4.49017C36.827 1.4635 34.4668 0.0538544 31.6461 0.0538544C29.8199 0.0538544 28.0478 0.639579 26.3371 1.20482L26.2805 1.22346C24.4554 1.82276 22.7316 2.38916 20.8715 2.38916C19.0076 2.38916 17.1807 1.77604 15.4026 1.17973C13.6583 0.599533 11.8548 0 10.0496 0C7.21485 0 4.91016 1.43819 2.79764 4.52446C-0.525457 9.36422 1.36129 14.5469 2.88325 18.7266C3.56103 20.5862 4.20107 22.3424 4.20107 23.6685C4.20107 30.4774 5.63696 42.0002 11.0189 42.0002C14.7022 42.0002 15.8355 37.7206 16.838 33.9343C17.9024 29.9483 18.8242 27.127 21.0023 27.127C22.8814 27.127 23.6004 28.9536 24.5972 33.3326C25.4598 37.1586 26.5332 41.9197 31.0599 41.9197C37.3763 41.9197 37.8672 27.9433 37.8672 23.6598C37.8672 22.4025 38.4861 20.661 39.1415 18.817L39.1675 18.7434C40.6755 14.4776 42.5521 9.16906 39.0734 4.49017ZM35.9128 17.5927L35.8889 17.6608C35.131 19.7931 34.4152 21.8071 34.4152 23.6596C34.4152 27.7251 33.9876 31.6659 33.2417 34.4716C32.3704 37.7494 31.3713 38.4672 31.0599 38.4672C29.6735 38.4672 29.0082 37.2003 27.9612 32.5568C27.1078 28.8082 25.9394 23.6743 21.0023 23.6743C16.0049 23.6743 14.5586 29.0892 13.4981 33.0611C12.9195 35.2459 12.0454 38.5476 11.0192 38.5476C10.8599 38.5476 9.85717 37.8553 8.93911 34.5653C8.12209 31.6378 7.65374 27.666 7.65374 23.6681C7.65374 21.7325 6.9122 19.698 6.12211 17.5301C4.7479 13.7559 3.32697 9.85305 5.64548 6.47634C7.46893 3.81146 8.89515 3.4522 10.0496 3.4522C11.296 3.4522 12.7616 3.93943 14.3156 4.45611C16.2507 5.10535 18.4437 5.84136 20.8713 5.84136C23.2835 5.84136 25.448 5.13067 27.3575 4.50352L27.4172 4.48395C28.9384 3.98108 30.3757 3.50629 31.6461 3.50629C32.8316 3.50629 34.3119 3.86762 36.3022 6.54906C38.6845 9.75271 37.2755 13.7384 35.9128 17.5927Z" fill="white"/>
</g>
<defs>
<clipPath id="clip0_1_479">
<rect width="42" height="42" fill="white"/>
</clipPath>
</defs>
</svg>
