<svg width="42" height="42" viewBox="0 0 42 42" fill="none" xmlns="http://www.w3.org/2000/svg">
<path d="M40.6875 26.2495C39.963 26.2495 39.375 26.8375 39.375 27.562V36.7495H2.625V20.9995H17.0625C17.787 20.9995 18.375 20.4115 18.375 19.687C18.375 18.9625 17.787 18.3745 17.0625 18.3745H2.625V13.1245H17.0625C17.787 13.1245 18.375 12.5365 18.375 11.812C18.375 11.0875 17.787 10.4995 17.0625 10.4995H2.625C1.176 10.4995 0 11.6755 0 13.1245V36.7495C0 38.1985 1.176 39.3745 2.625 39.3745H39.375C40.824 39.3745 42 38.1985 42 36.7495V27.562C42 26.8375 41.412 26.2495 40.6875 26.2495Z" fill="white"/>
<path d="M11.8125 26.2495H6.5625C5.838 26.2495 5.25 26.8375 5.25 27.562C5.25 28.2865 5.838 28.8745 6.5625 28.8745H11.8125C12.537 28.8745 13.125 28.2865 13.125 27.562C13.125 26.8375 12.537 26.2495 11.8125 26.2495Z" fill="white"/>
<path d="M41.2046 6.66733L32.0171 2.72983C31.6837 2.59071 31.3136 2.59071 30.9803 2.72983L21.7928 6.66733C21.3124 6.87471 21 7.34983 21 7.87483V13.1248C21 20.3462 23.6696 24.5672 30.8464 28.7016C31.0485 28.8171 31.2743 28.8748 31.5 28.8748C31.7257 28.8748 31.9515 28.8171 32.1536 28.7016C39.3304 24.5777 42 20.3567 42 13.1248V7.87483C42 7.34983 41.6876 6.87471 41.2046 6.66733ZM39.375 13.1248C39.375 19.186 37.3695 22.5223 31.5 26.0398C25.6305 22.5145 23.625 19.1781 23.625 13.1248V8.74108L31.5 5.36533L39.375 8.74108V13.1248Z" fill="white"/>
<path d="M36.2591 10.7859C35.6947 10.3397 34.8705 10.4263 34.4137 10.9907L30.2873 16.1514L28.6545 13.7102C28.2476 13.1064 27.4313 12.9463 26.8354 13.3453C26.2343 13.7469 26.0689 14.5633 26.4705 15.1644L29.0955 19.1019C29.3291 19.4511 29.7124 19.6663 30.1324 19.6873C30.1508 19.6873 30.1718 19.6873 30.1875 19.6873C30.5839 19.6873 30.9619 19.5088 31.2139 19.1938L36.4639 12.6313C36.9154 12.0643 36.8261 11.2401 36.2591 10.7859Z" fill="white"/>
</svg>
