<svg width="32" height="46" viewBox="0 0 32 46" fill="none" xmlns="http://www.w3.org/2000/svg">
<path d="M28.8778 1.76063C27.022 0.571016 25.2138 0 23.358 0C21.407 0 19.7416 0.71377 18.4092 1.2372C17.4575 1.61788 16.6486 1.99856 15.9824 1.99856C15.3162 1.99856 14.5073 1.66546 13.5556 1.2372C12.2232 0.71377 10.6053 0 8.60675 0C6.79854 0 4.99032 0.571016 3.08693 1.76063C-2.09979 5.04397 0.422192 12.8003 2.23041 18.4153C2.32558 18.7484 2.46833 19.0814 2.5635 19.367H2.42075V28.7887H13.6507V30.8349H5.75167V33.2141H13.6507V34.8796H7.70264V37.2588H13.6983V38.9243H10.0819V41.3035H13.6983V42.9689H12.6039V45.3482H19.4085V42.9689H18.314V41.3035H21.9305V38.9243H18.314V37.2588H24.3097V34.8796H18.314V33.2141H26.2131V30.8349H18.314V28.7887H29.544V19.4145H29.4012C29.4964 19.0814 29.5916 18.7959 29.7343 18.4153C31.5901 12.8003 34.1121 5.04397 28.8778 1.76063ZM28.3544 17.987C28.2116 18.4628 28.0213 18.9387 27.8785 19.4145H4.08621C3.94346 18.9387 3.8007 18.4628 3.61036 17.987C1.89732 12.8003 -0.434332 5.66257 3.84829 2.99783C5.51375 1.95097 7.03646 1.42754 8.60675 1.42754C10.3198 1.42754 11.7473 2.04614 12.9845 2.56957C14.0314 2.99783 15.0307 3.4261 15.9824 3.4261C16.9341 3.4261 17.9333 2.99783 18.9802 2.56957C20.265 2.04614 21.6925 1.42754 23.358 1.42754C24.9283 1.42754 26.451 1.95097 28.1165 2.99783C32.3991 5.66257 30.0674 12.8003 28.3544 17.987Z" fill="white"/>
</svg>
