<svg width="24" height="24" viewBox="0 0 24 24" fill="none" xmlns="http://www.w3.org/2000/svg">
<g clip-path="url(#clip0_1_514)">
<path d="M17.0284 5.34058e-05H6.97162C3.12745 5.34058e-05 0 3.12751 0 6.97168V17.0284C0 20.8726 3.12745 24.0001 6.97162 24.0001H17.0284C20.8725 24.0001 24 20.8726 24 17.0285V6.97168C24 3.12751 20.8725 5.34058e-05 17.0284 5.34058e-05ZM22.125 17.0284C22.125 19.8387 19.8387 22.1251 17.0284 22.1251H6.97162C4.16133 22.1251 1.875 19.8387 1.875 17.0285V6.97168C1.875 4.16138 4.16133 1.87505 6.97162 1.87505H17.0284C19.8387 1.87505 22.125 4.16138 22.125 6.97168V17.0284Z" fill="#5E0371"/>
<path d="M19.5284 -71.5H9.47162C5.62745 -71.5 2.5 -68.3725 2.5 -64.5284V-54.4716C2.5 -50.6275 5.62745 -47.5 9.47162 -47.5H19.5284C23.3725 -47.5 26.5 -50.6275 26.5 -54.4716V-64.5284C26.5 -68.3725 23.3725 -71.5 19.5284 -71.5ZM24.625 -54.4716C24.625 -51.6613 22.3387 -49.375 19.5284 -49.375H9.47162C6.66133 -49.375 4.375 -51.6613 4.375 -54.4716V-64.5284C4.375 -67.3387 6.66133 -69.625 9.47162 -69.625H19.5284C22.3387 -69.625 24.625 -67.3387 24.625 -64.5284V-54.4716Z" fill="#5E0371"/>
<path d="M12 5.53125C8.43309 5.53125 5.53125 8.43309 5.53125 12C5.53125 15.5669 8.43309 18.4688 12 18.4688C15.5669 18.4688 18.4688 15.5669 18.4688 12C18.4688 8.43309 15.5669 5.53125 12 5.53125ZM12 16.5938C9.46702 16.5938 7.40625 14.533 7.40625 12C7.40625 9.46702 9.46702 7.40625 12 7.40625C14.533 7.40625 16.5938 9.46702 16.5938 12C16.5938 14.533 14.533 16.5938 12 16.5938Z" fill="#5E0371"/>
<path d="M18.5625 6.375C19.0803 6.375 19.5 5.95527 19.5 5.4375C19.5 4.91973 19.0803 4.5 18.5625 4.5C18.0447 4.5 17.625 4.91973 17.625 5.4375C17.625 5.95527 18.0447 6.375 18.5625 6.375Z" fill="#5E0371"/>
</g>
<defs>
<clipPath id="clip0_1_514">
<rect width="24" height="24" fill="white"/>
</clipPath>
</defs>
</svg>
