<svg width="25" height="26" viewBox="0 0 25 26" fill="none" xmlns="http://www.w3.org/2000/svg">
<g clip-path="url(#clip0_7_59)">
<path d="M0.111084 20.2576V22.3333C0.111084 24.0493 4.29164 25.4444 9.44442 25.4444C14.5972 25.4444 18.7778 24.0493 18.7778 22.3333V20.2576C16.7701 21.6722 13.1 22.3333 9.44442 22.3333C5.78886 22.3333 2.11872 21.6722 0.111084 20.2576ZM15.6666 6.77776C20.8194 6.77776 25 5.38263 25 3.66665C25 1.95068 20.8194 0.555542 15.6666 0.555542C10.5139 0.555542 6.33331 1.95068 6.33331 3.66665C6.33331 5.38263 10.5139 6.77776 15.6666 6.77776ZM0.111084 15.1583V17.6667C0.111084 19.3826 4.29164 20.7778 9.44442 20.7778C14.5972 20.7778 18.7778 19.3826 18.7778 17.6667V15.1583C16.7701 16.8111 13.0951 17.6667 9.44442 17.6667C5.79372 17.6667 2.11872 16.8111 0.111084 15.1583ZM20.3333 15.693C23.1187 15.1535 25 14.1521 25 13V10.9243C23.8722 11.7215 22.2146 12.266 20.3333 12.6014V15.693ZM9.44442 8.33332C4.29164 8.33332 0.111084 10.0736 0.111084 12.2222C0.111084 14.3708 4.29164 16.1111 9.44442 16.1111C14.5972 16.1111 18.7778 14.3708 18.7778 12.2222C18.7778 10.0736 14.5972 8.33332 9.44442 8.33332ZM20.1048 11.0701C23.0215 10.5451 25 9.51457 25 8.33332V6.25763C23.2743 7.47776 20.309 8.13401 17.1882 8.28957C18.6222 8.98471 19.6771 9.91804 20.1048 11.0701Z" fill="#D8D8D8"/>
</g>
<defs>
<clipPath id="clip0_7_59">
<rect width="24.8889" height="24.8889" fill="white" transform="translate(0.111084 0.555542)"/>
</clipPath>
</defs>
</svg>
