<svg width="24" height="24" viewBox="0 0 24 24" fill="none" xmlns="http://www.w3.org/2000/svg">
<g clip-path="url(#clip0_1_514)">
<path d="M17.0284 5.34058e-05H6.97162C3.12745 5.34058e-05 0 3.12751 0 6.97168V17.0284C0 20.8726 3.12745 24.0001 6.97162 24.0001H17.0284C20.8725 24.0001 24 20.8726 24 17.0285V6.97168C24 3.12751 20.8725 5.34058e-05 17.0284 5.34058e-05ZM22.125 17.0284C22.125 19.8387 19.8387 22.1251 17.0284 22.1251H6.97162C4.16133 22.1251 1.875 19.8387 1.875 17.0285V6.97168C1.875 4.16138 4.16133 1.87505 6.97162 1.87505H17.0284C19.8387 1.87505 22.125 4.16138 22.125 6.97168V17.0284Z" fill="#5E0371"/>
<path d="M19.5284 -71.5H9.47162C5.62745 -71.5 2.5 -68.3725 2.5 -64.5284V-54.4716C2.5 -50.6275 5.62745 -47.5 9.47162 -47.5H19.5284C23.3725 -47.5 26.5 -50.6275 26.5 -54.4716V-64.5284C26.5 -68.3725 23.3725 -71.5 19.5284 -71.5ZM24.625 -54.4716C24.625 -51.6613 22.3387 -49.375 19.5284 -49.375H9.47162C6.66133 -49.375 4.375 -51.6613 4.375 -54.4716V-64.5284C4.375 -67.3387 6.66133 -69.625 9.47162 -69.625H19.5284C22.3387 -69.625 24.625 -67.3387 24.625 -64.5284V-54.4716Z" fill="#5E0371"/>
<path d="M18.9573 7.14521L16.6937 17.8203C16.5229 18.5737 16.0775 18.7612 15.4447 18.4063L11.9957 15.8647L10.3315 17.4653C10.1473 17.6495 9.99329 17.8035 9.63835 17.8035L9.88614 14.2909L16.2784 8.51475C16.5564 8.26696 16.2182 8.12967 15.8465 8.37746L7.944 13.3534L4.54191 12.2885C3.80189 12.0575 3.7885 11.5485 4.69594 11.1936L18.0029 6.06699C18.6191 5.83594 19.1582 6.20428 18.9573 7.14521V7.14521Z" fill="#5E0371"/>
</g>
<defs>
<clipPath id="clip0_1_514">
<rect width="24" height="24" fill="white"/>
</clipPath>
</defs>
</svg>
