<svg width="26" height="26" viewBox="0 0 26 26" fill="none" xmlns="http://www.w3.org/2000/svg">
<g clip-path="url(#clip0_1_399)">
<path d="M25.4513 5.8516L21.532 4.72251L20.403 0.803028C20.1925 0.0718577 19.1503 0.0698741 18.9392 0.803028L17.929 4.30991C16.229 2.64206 13.6935 2.08545 11.3728 3.49463C10.475 4.03894 9.35981 4.03914 8.46241 3.49463C3.71219 0.610417 -1.70038 6.00176 0.509794 11.3994C1.18622 13.0532 1.48733 14.8244 1.38081 16.5214C1.13801 20.3931 2.91238 23.8371 5.63751 25.6172C5.88765 25.7807 5.98108 25.742 7.29405 25.7277C7.71141 25.7231 8.04744 25.3835 8.04744 24.966V19.5231C8.04744 18.488 8.85954 17.6289 9.85771 17.6082C10.9114 17.5874 11.7438 18.5005 11.7438 19.5675V24.8767C11.7438 25.2974 12.0847 25.6384 12.5055 25.6384C13.988 25.6384 14.069 25.6781 14.3219 25.5043C17.0405 23.633 18.6093 20.2267 18.4161 16.6137C18.3382 15.1846 18.5229 13.7475 18.9523 12.4032C19.1959 13.1042 20.1982 13.0746 20.403 12.3639L21.532 8.44442L25.4513 7.31533C26.1829 7.10466 26.1839 6.06266 25.4513 5.8516V5.8516ZM16.8949 16.696C17.0554 19.6964 15.8152 22.5156 13.6465 24.1152H13.2672V19.5675C13.2672 17.6697 11.7567 16.0465 9.82637 16.0852C7.98951 16.1231 6.5242 17.6515 6.5242 19.5231V24.2126L6.28378 24.2152C4.03135 22.6348 2.70906 19.6804 2.90127 16.617C3.02228 14.6919 2.68287 12.6882 1.91977 10.8224C0.27612 6.8087 4.16386 2.66726 7.67193 4.79709C9.05711 5.63717 10.7777 5.63716 12.1631 4.79689C13.7794 3.81578 15.379 4.17939 16.5206 5.09404L13.8907 5.8516C13.1593 6.06226 13.1581 7.10446 13.8907 7.31552L17.8101 8.44461L18.2124 9.84149C18.1434 10.188 18.0375 10.533 17.896 10.869C17.1321 12.6827 16.7858 14.698 16.8949 16.696ZM20.7057 7.09713C20.4539 7.16953 20.2572 7.3665 20.1848 7.61823L19.671 9.40132L19.1574 7.61823C19.0848 7.3665 18.888 7.16953 18.6363 7.09713L16.8534 6.58356L18.6363 6.07C18.888 5.99739 19.085 5.80062 19.1574 5.54869L19.671 3.7658L20.1848 5.54869C20.2572 5.80062 20.4541 5.99739 20.7057 6.07L22.4888 6.58356L20.7057 7.09713Z" fill="white"/>
</g>
<defs>
<clipPath id="clip0_1_399">
<rect width="26" height="26" fill="white"/>
</clipPath>
</defs>
</svg>
