<svg width="24" height="24" viewBox="0 0 24 24" fill="none" xmlns="http://www.w3.org/2000/svg">
<g clip-path="url(#clip0_1_524)">
<path d="M17.0284 5.34058e-05H6.97162C3.12745 5.34058e-05 0 3.12751 0 6.97168V17.0284C0 20.8726 3.12745 24.0001 6.97162 24.0001H17.0284C20.8725 24.0001 24 20.8726 24 17.0285V6.97168C24 3.12751 20.8725 5.34058e-05 17.0284 5.34058e-05ZM22.125 17.0284C22.125 19.8387 19.8387 22.1251 17.0284 22.1251H6.97162C4.16133 22.1251 1.875 19.8387 1.875 17.0285V6.97168C1.875 4.16138 4.16133 1.87505 6.97162 1.87505H17.0284C19.8387 1.87505 22.125 4.16138 22.125 6.97168V17.0284Z" fill="#5E0371"/>
<path d="M19.5284 -71.5H9.47162C5.62745 -71.5 2.5 -68.3725 2.5 -64.5284V-54.4716C2.5 -50.6275 5.62745 -47.5 9.47162 -47.5H19.5284C23.3725 -47.5 26.5 -50.6275 26.5 -54.4716V-64.5284C26.5 -68.3725 23.3725 -71.5 19.5284 -71.5ZM24.625 -54.4716C24.625 -51.6613 22.3387 -49.375 19.5284 -49.375H9.47162C6.66133 -49.375 4.375 -51.6613 4.375 -54.4716V-64.5284C4.375 -67.3387 6.66133 -69.625 9.47162 -69.625H19.5284C22.3387 -69.625 24.625 -67.3387 24.625 -64.5284V-54.4716Z" fill="#5E0371"/>
<g clip-path="url(#clip1_1_524)">
<path d="M16.4469 13.1425C16.2044 12.8363 16.2738 12.7 16.4469 12.4263C16.45 12.4231 18.4519 9.65688 18.6581 8.71875L18.6594 8.71813C18.7619 8.37625 18.6594 8.125 18.1638 8.125H16.5238C16.1063 8.125 15.9137 8.34063 15.8106 8.58188C15.8106 8.58188 14.9756 10.5806 13.7944 11.8763C13.4131 12.2506 13.2369 12.3706 13.0288 12.3706C12.9263 12.3706 12.7669 12.2506 12.7669 11.9088V8.71813C12.7669 8.30812 12.65 8.125 12.3044 8.125H9.72563C9.46375 8.125 9.30813 8.31625 9.30813 8.49438C9.30813 8.88313 9.89875 8.9725 9.96 10.0663V12.4394C9.96 12.9594 9.86563 13.055 9.65625 13.055C9.09875 13.055 7.74563 11.0481 6.94375 8.75125C6.78188 8.30562 6.62375 8.12562 6.20313 8.12562H4.5625C4.09437 8.12562 4 8.34125 4 8.5825C4 9.00875 4.5575 11.1281 6.5925 13.9281C7.94875 15.8394 9.85875 16.875 11.5963 16.875C12.6406 16.875 12.7681 16.645 12.7681 16.2494C12.7681 14.4231 12.6738 14.2506 13.1969 14.2506C13.4394 14.2506 13.8569 14.3706 14.8319 15.2925C15.9462 16.3856 16.1294 16.875 16.7531 16.875H18.3931C18.8606 16.875 19.0975 16.645 18.9612 16.1913C18.6494 15.2369 16.5419 13.2738 16.4469 13.1425V13.1425Z" fill="#5E0371"/>
</g>
</g>
<defs>
<clipPath id="clip0_1_524">
<rect width="24" height="24" fill="white"/>
</clipPath>
<clipPath id="clip1_1_524">
<rect width="15" height="15" fill="white" transform="translate(4 5)"/>
</clipPath>
</defs>
</svg>
